/* XPM */
static char * C:\Users\admin\Dropbox\ravecoin\pixmaps\bitcoin32_xpm[] = {
"32 32 548 2",
"  	c None",
". 	c #AB7D74",
"+ 	c #A67369",
"@ 	c #A56B5C",
"# 	c #A16456",
"$ 	c #A16356",
"% 	c #A76B5C",
"& 	c #A57069",
"* 	c #AA7874",
"= 	c #BA8E7D",
"- 	c #B97D5F",
"; 	c #B87244",
"> 	c #B8764D",
", 	c #BC8468",
"' 	c #C19482",
") 	c #C49F92",
"! 	c #C4A095",
"~ 	c #BF9586",
"{ 	c #B6816E",
"] 	c #AE6C51",
"^ 	c #A96145",
"/ 	c #A76859",
"( 	c #AA7A76",
"_ 	c #C69C86",
": 	c #C78D64",
"< 	c #CB8950",
"[ 	c #D3A182",
"} 	c #E2C9BC",
"| 	c #F0E5DF",
"1 	c #F8F4F3",
"2 	c #FCFAF9",
"3 	c #FCFBFB",
"4 	c #FBF9F8",
"5 	c #F9F5F4",
"6 	c #F0E7E5",
"7 	c #DDCAC4",
"8 	c #C3998C",
"9 	c #AE694F",
"0 	c #A86554",
"a 	c #AB7D79",
"b 	c #D0A07E",
"c 	c #DA9A5C",
"d 	c #DFAD84",
"e 	c #EEDACE",
"f 	c #FBF7F5",
"g 	c #FEFEFD",
"h 	c #FFFFFF",
"i 	c #FFFFFE",
"j 	c #FEFEFE",
"k 	c #FAF8F7",
"l 	c #E8DBD7",
"m 	c #C49A8D",
"n 	c #AC6448",
"o 	c #A76F68",
"p 	c #DCAA7F",
"q 	c #E9AC6A",
"r 	c #EFCDB1",
"s 	c #FBF4F0",
"t 	c #FFFEFE",
"u 	c #FDFCFB",
"v 	c #EBE0DD",
"w 	c #EDE3E0",
"x 	c #FDFCFC",
"y 	c #D9C2BB",
"z 	c #B07058",
"A 	c #A76A5F",
"B 	c #E3B486",
"C 	c #F5BC79",
"D 	c #F9DEC6",
"E 	c #FEFBF9",
"F 	c #F9F7F6",
"G 	c #D8C1BA",
"H 	c #B06F56",
"I 	c #B3755E",
"J 	c #DBC6BF",
"K 	c #FAF7F6",
"L 	c #FDFBFB",
"M 	c #E3D3CE",
"N 	c #B27661",
"O 	c #A6695E",
"P 	c #E2B88E",
"Q 	c #FAC27B",
"R 	c #FDE2C8",
"S 	c #FFFCFA",
"T 	c #D9D9D9",
"U 	c #BFBFBF",
"V 	c #C0C0C0",
"W 	c #C1C1C1",
"X 	c #C3C3C3",
"Y 	c #D0D0D0",
"Z 	c #EFE9E7",
"` 	c #CDAC9F",
" .	c #A75D35",
"..	c #A24D0D",
"+.	c #A45017",
"@.	c #AB603D",
"#.	c #CAA59B",
"$.	c #F2EAE8",
"%.	c #AE6F56",
"&.	c #A46E68",
"*.	c #DDBC99",
"=.	c #F7C57D",
"-.	c #FEDDB8",
";.	c #FFFBF8",
">.	c #FCFCFC",
",.	c #ABACAC",
"'.	c #4C4C4D",
").	c #454446",
"!.	c #414142",
"~.	c #403F40",
"{.	c #6A6868",
"].	c #C7BDB8",
"^.	c #CCA18A",
"/.	c #B4682C",
"(.	c #AC590F",
"_.	c #A55208",
":.	c #A24D07",
"<.	c #A24E0F",
"[.	c #A65526",
"}.	c #B98473",
"|.	c #E6D7D2",
"1.	c #A76144",
"2.	c #A87B75",
"3.	c #ECBF87",
"4.	c #FFD498",
"5.	c #FFF7EF",
"6.	c #ADADAE",
"7.	c #545556",
"8.	c #48484A",
"9.	c #424243",
"0.	c #676766",
"a.	c #CABFB8",
"b.	c #D6A685",
"c.	c #C57B34",
"d.	c #BD7022",
"e.	c #B6671B",
"f.	c #B05F14",
"g.	c #AA570C",
"h.	c #A45009",
"i.	c #A45527",
"j.	c #B57F6B",
"k.	c #D6BFB8",
"l.	c #F6F3F2",
"m.	c #F8F5F4",
"n.	c #C19A8C",
"o.	c #A2624E",
"p.	c #DCB393",
"q.	c #F9C17A",
"r.	c #FEE8D0",
"s.	c #ACACAD",
"t.	c #5E5F61",
"u.	c #58595B",
"v.	c #6A696A",
"w.	c #CBC0B8",
"x.	c #E3B48D",
"y.	c #D69044",
"z.	c #CE8537",
"A.	c #C87D2F",
"B.	c #C27528",
"C.	c #BB6D20",
"D.	c #B56724",
"E.	c #BA7F61",
"F.	c #D4BBB2",
"G.	c #E3DBD9",
"H.	c #B8B6B6",
"I.	c #B7B7B7",
"J.	c #FAFAFA",
"K.	c #E7DBD7",
"L.	c #AA694D",
"M.	c #A4766F",
"N.	c #E5AE80",
"O.	c #FBC690",
"P.	c #FFF8F2",
"Q.	c #FBFBFB",
"R.	c #A6A6A7",
"S.	c #555658",
"T.	c #696A6B",
"U.	c #C5BDB7",
"V.	c #F0C59D",
"W.	c #E7A658",
"X.	c #E09B4B",
"Y.	c #DA9343",
"Z.	c #D38B3C",
"`.	c #CC8335",
" +	c #C88244",
".+	c #D4AC96",
"++	c #E2D3CC",
"@+	c #C9C1BE",
"#+	c #8C8A8A",
"$+	c #5A5A5B",
"%+	c #6E6E6F",
"&+	c #EAEAEA",
"*+	c #FBF8F7",
"=+	c #C59E8F",
"-+	c #A46753",
";+	c #EDA96E",
">+	c #FBD6BC",
",+	c #FFFEFD",
"'+	c #A1A1A2",
")+	c #4F4F50",
"!+	c #ACA8A4",
"~+	c #F5D3AF",
"{+	c #F8BA6C",
"]+	c #F2B15F",
"^+	c #EBA957",
"/+	c #E4A14F",
"(+	c #DE9949",
"_+	c #DA9C60",
":+	c #E7CCBA",
"<+	c #DECFC9",
"[+	c #D5C2BC",
"}+	c #C5B9B3",
"|+	c #B0A7A1",
"1+	c #928F8B",
"2+	c #7A7979",
"3+	c #DBDBDB",
"4+	c #E2CFC7",
"5+	c #AF6943",
"6+	c #D5A08A",
"7+	c #F0A66A",
"8+	c #FCE7DC",
"9+	c #9E9E9E",
"0+	c #868481",
"a+	c #EED6BB",
"b+	c #FDC77B",
"c+	c #FCC06C",
"d+	c #FABC69",
"e+	c #F6B663",
"f+	c #F0AE5C",
"g+	c #EAA95D",
"h+	c #EECAAD",
"i+	c #F5E5DB",
"j+	c #E5D1C7",
"k+	c #E7D2C7",
"l+	c #F3D3BD",
"m+	c #F9CC99",
"n+	c #F4D2AB",
"o+	c #E7DDD3",
"p+	c #F2F1F1",
"q+	c #F3EBE8",
"r+	c #BC7E5B",
"s+	c #B07E6E",
"t+	c #CE9580",
"u+	c #EBA674",
"v+	c #FDF3EE",
"w+	c #A8A7A7",
"x+	c #D6C8BA",
"y+	c #FDCF8D",
"z+	c #FEC873",
"A+	c #FDC570",
"B+	c #FDC26E",
"C+	c #FCBF6B",
"D+	c #F9BA68",
"E+	c #F4B463",
"F+	c #EFB370",
"G+	c #EEC39D",
"H+	c #F5DECC",
"I+	c #FCE5CB",
"J+	c #FDDBB2",
"K+	c #F7DDC1",
"L+	c #E2D7CD",
"M+	c #C2BFBD",
"N+	c #ECECEC",
"O+	c #FBF7F6",
"P+	c #CC9A7D",
"Q+	c #B47C65",
"R+	c #CA9076",
"S+	c #E4A885",
"T+	c #FCF7F5",
"U+	c #D6D2D0",
"V+	c #F7D1AD",
"W+	c #FCC47B",
"X+	c #FEC97B",
"Y+	c #FEC974",
"Z+	c #FEC771",
"`+	c #FDC470",
" @	c #FCC270",
".@	c #FBC88A",
"+@	c #FBE1C7",
"@@	c #FDE8D1",
"#@	c #F8DFC4",
"$@	c #D9D1C8",
"%@	c #9C9A99",
"&@	c #5E5D5E",
"*@	c #858585",
"=@	c #F3F3F3",
"-@	c #FDFBFA",
";@	c #D8B099",
">@	c #BD805B",
",@	c #C08772",
"'@	c #DDAA8E",
")@	c #FDF9F8",
"!@	c #F5E6DB",
"~@	c #F9E8DA",
"{@	c #FDE3C9",
"]@	c #FDC67D",
"^@	c #FEC772",
"/@	c #FECA79",
"(@	c #FED9AA",
"_@	c #FFEDDA",
":@	c #FEE1BF",
"<@	c #FADCBB",
"[@	c #E1D7CC",
"}@	c #A09E9D",
"|@	c #5B5B5C",
"1@	c #3F3E3F",
"2@	c #5B5A5B",
"3@	c #FEFDFB",
"4@	c #E1BDA6",
"5@	c #C3865C",
"6@	c #B6816F",
"7@	c #D4A68E",
"8@	c #FCF9F8",
"9@	c #B4B3B3",
"0@	c #8C8C8C",
"a@	c #CFC9C6",
"b@	c #F8CCA8",
"c@	c #FAB768",
"d@	c #FBC178",
"e@	c #FEDFBD",
"f@	c #FEECD9",
"g@	c #FCDBB6",
"h@	c #F0DDCB",
"i@	c #BDB9B7",
"j@	c #747475",
"k@	c #505052",
"l@	c #4B4B4C",
"m@	c #CBCBCB",
"n@	c #FEFDFC",
"o@	c #E5C2AA",
"p@	c #CB8E5E",
"q@	c #AE7B6E",
"r@	c #C99983",
"s@	c #FBF8F6",
"t@	c #F9F9F9",
"u@	c #9D9D9D",
"v@	c #858383",
"w@	c #E8CABA",
"x@	c #F4A967",
"y@	c #F6B271",
"z@	c #FBDDC5",
"A@	c #FCE6D3",
"B@	c #F9D9BB",
"C@	c #DED4CA",
"D@	c #919090",
"E@	c #616264",
"F@	c #5D5E60",
"G@	c #5A5B5D",
"H@	c #747476",
"I@	c #E1E1E1",
"J@	c #FDFDFD",
"K@	c #FEFCFB",
"L@	c #E9C2A4",
"M@	c #D39864",
"N@	c #A37774",
"O@	c #BA856D",
"P@	c #F6F2F0",
"Q@	c #A2A2A2",
"R@	c #C9BFBA",
"S@	c #E5A881",
"T@	c #EBA069",
"U@	c #F8D8C5",
"V@	c #F6E1CF",
"W@	c #F6DDC9",
"X@	c #F8F3F0",
"Y@	c #A0A09F",
"Z@	c #4A4A4B",
"`@	c #4C4D4F",
" #	c #5B5C5E",
".#	c #69696A",
"+#	c #CECECF",
"@#	c #FEFAF8",
"##	c #ECBD94",
"$#	c #D8A172",
"%#	c #9F7A7B",
"&#	c #A86F57",
"*#	c #EBE2DF",
"=#	c #BBBAB9",
"-#	c #D9BBAD",
";#	c #D48F62",
">#	c #EDCFBF",
",#	c #F1DDD1",
"'#	c #ECD9CC",
")#	c #D1D1D1",
"!#	c #525254",
"~#	c #424244",
"{#	c #59595B",
"]#	c #929293",
"^#	c #FDF6F0",
"/#	c #EFB97E",
"(#	c #DFAB7E",
"_#	c #985F4D",
":#	c #D5C4BF",
"<#	c #FEFDFD",
"[#	c #E0D9D7",
"}#	c #C59179",
"|#	c #DFC0B3",
"1#	c #EEE0D8",
"2#	c #E0D1C8",
"3#	c #B2B0AF",
"4#	c #F1F1F1",
"5#	c #F4F4F4",
"6#	c #898989",
"7#	c #3D3C3D",
"8#	c #3F3F40",
"9#	c #444445",
"0#	c #4B4B4D",
"a#	c #5E5F60",
"b#	c #FDEBDA",
"c#	c #F3B973",
"d#	c #91635F",
"e#	c #B39289",
"f#	c #F8F7F6",
"g#	c #D7C5BF",
"h#	c #CBACA1",
"i#	c #EFE6E2",
"j#	c #DFD4D0",
"k#	c #969594",
"l#	c #767576",
"m#	c #F0F0F0",
"n#	c #C9C9C9",
"o#	c #484748",
"p#	c #393839",
"q#	c #414042",
"r#	c #474749",
"s#	c #888889",
"t#	c #FFFDFB",
"u#	c #FDDAB5",
"v#	c #F3BC79",
"w#	c #957377",
"x#	c #976251",
"y#	c #E1D8D5",
"z#	c #C5AEA7",
"A#	c #F0EAE7",
"B#	c #E7E1DF",
"C#	c #9D9C9C",
"D#	c #5B5B5D",
"E#	c #7A7B7B",
"F#	c #7D7C7D",
"G#	c #353335",
"H#	c #373637",
"I#	c #3B393B",
"J#	c #515153",
"K#	c #C6C6C6",
"L#	c #FFF5EA",
"M#	c #FCCB8A",
"N#	c #EFC088",
"O#	c #905E56",
"P#	c #B5978F",
"Q#	c #F7F5F4",
"R#	c #E8E1DE",
"S#	c #E6DEDC",
"T#	c #A4A3A3",
"U#	c #4E4E4F",
"V#	c #535355",
"W#	c #838485",
"X#	c #F2F2F2",
"Y#	c #3F3C3E",
"Z#	c #323031",
"`#	c #383738",
" $	c #818181",
".$	c #FFFDFA",
"+$	c #FFE0BB",
"@$	c #F8C67E",
"#$	c #987678",
"$$	c #925C4B",
"%$	c #D3C4BF",
"&$	c #EEE9E6",
"*$	c #FBFAFA",
"=$	c #D2D2D2",
"-$	c #787878",
";$	c #797979",
">$	c #989999",
",$	c #EDEDED",
"'$	c #828282",
")$	c #605F5F",
"!$	c #5F5E5F",
"~$	c #676767",
"{$	c #FEEBDA",
"]$	c #FBC982",
"^$	c #F1C68C",
"/$	c #926765",
"($	c #9D6E5F",
"_$	c #E2D8D6",
":$	c #F8F8F8",
"<$	c #F7F7F7",
"[$	c #F5F5F5",
"}$	c #F0EFF0",
"|$	c #EFEFEF",
"1$	c #F5F4F4",
"2$	c #FDF0E7",
"3$	c #FAC58E",
"4$	c #F1BB7D",
"5$	c #906058",
"6$	c #A3796C",
"7$	c #E4DCD9",
"8$	c #FDFDFC",
"9$	c #FDEFE7",
"0$	c #F7C093",
"a$	c #F0AF70",
"b$	c #A07466",
"c$	c #DBCFCC",
"d$	c #FBF9F9",
"e$	c #FEFCFC",
"f$	c #F8E5DB",
"g$	c #F1B287",
"h$	c #EDA368",
"i$	c #91625D",
"j$	c #966150",
"k$	c #C3ACA7",
"l$	c #EEE9E8",
"m$	c #F8F2EF",
"n$	c #E8C8B9",
"o$	c #DE996B",
"p$	c #DE9667",
"q$	c #97706B",
"r$	c #8F5748",
"s$	c #A07365",
"t$	c #C7B3AE",
"u$	c #FAF7F7",
"v$	c #F0E7E4",
"w$	c #DEC5BA",
"x$	c #CC9579",
"y$	c #C78156",
"z$	c #CE8F6F",
"A$	c #966B64",
"B$	c #905848",
"C$	c #96614E",
"D$	c #A98478",
"E$	c #BEA69F",
"F$	c #CDBBB7",
"G$	c #D4C4C0",
"H$	c #D4C6C1",
"I$	c #CFBEB9",
"J$	c #C5ACA5",
"K$	c #B78F81",
"L$	c #AE745B",
"M$	c #AF6D4E",
"N$	c #B87E64",
"O$	c #A0786F",
"P$	c #976961",
"Q$	c #915C50",
"R$	c #8F5443",
"S$	c #8F5444",
"T$	c #905441",
"U$	c #945F50",
"V$	c #9C6B5E",
"W$	c #AA7B6C",
"                        . + @ # $ % & *                         ",
"                  = - ; > , ' ) ! ~ { ] ^ / (                   ",
"              _ : < [ } | 1 2 3 3 4 5 6 7 8 9 0 a               ",
"            b c d e f g h h h h h h i h j k l m n o             ",
"          p q r s t h h h h h h h u v w x h j 5 y z A           ",
"        B C D E j j j j j j j h F G H I J K h h L M N O         ",
"      P Q R S j T U U V W X Y Z `  ...+.@.#.$.j h x M %.&.      ",
"    *.=.-.;.h >.,.'.).!.~.{.].^./.(._.:.<.[.}.|.x h L G 1.2.    ",
"    3.4.5.h h >.6.7.8.9.0.a.b.c.d.e.f.g.h.i.j.k.l.h h m.n.o.    ",
"  p.q.r.t h h >.s.t.u.v.w.x.y.z.A.B.C.D.E.F.G.H.I.J.h j K.L.M.  ",
"  N.O.P.h h h Q.R.S.T.U.V.W.X.Y.Z.`. +.+++@+#+$+%+&+h h *+=+-+  ",
"  ;+>+,+h h h Q.'+)+!+~+{+]+^+/+(+_+:+<+[+}+|+1+2+3+h h j 4+5+  ",
"6+7+8+h h h h Q.9+0+a+b+c+d+e+f+g+h+i+j+k+l+m+n+o+p+h h h q+r+s+",
"t+u+v+h h h h J.w+x+y+z+A+B+C+D+E+F+G+H+I+J+K+L+M+N+h h h O+P+Q+",
"R+S+T+h h h h Q.U+V+W+X+Y+Z+`+ @.@+@@@J+#@$@%@&@*@=@h h h -@;@>@",
",@'@)@h h h h j l.!@~@{@]@^@/@(@_@:@<@[@}@|@1@2@Y j h h h 3@4@5@",
"6@7@8@h h h h Q.9@0@a@b@c@d@e@f@g@h@i@j@k@l@j@m@Q.h h h h n@o@p@",
"q@r@s@h h h h t@u@v@w@x@y@z@A@B@C@D@E@F@G@H@I@J@h h h h h K@L@M@",
"N@O@P@h h h h t@Q@R@S@T@U@V@W@X@Y@Z@`@S. #.#+#j h h h h h @###$#",
"%#&#*#h h h h t@=#-#;#>#,#'#4 j )#!#~#8.k@{#]#=@h h h h h ^#/#(#",
"  _#:#<#h h h 3 [#}#|#1#2#3#4#h 5#6#7#8#9#0#a#m@j h h h i b#c#  ",
"  d#e#f#h h h J@g#h#i#j#k#l#m#h j n#o#p#7#q#r#s#4#h h h t#u#v#  ",
"  w#x#y#j h h l.z#A#B#C#D#E#4#h h m#F#G#H#I#1@J#K#J@h h L#M#N#  ",
"    O#P#Q#h j R#S#5#T#U#V#W#X#h h J@V Y#Z#G#`#7# $m#h .$+$@$    ",
"    #$$$%$x J@&$*$=$ $-$;$>$5#h h h ,$'$)$!$&@&@~$m@n@{$]$^$    ",
"      /$($_$J@n@h Q.:$<$<$:$j h h h j [$X#4#m#}$|$1$2$3$4$      ",
"        5$6$7$8$h h h h h h h h h h h h h h h h t 9$0$a$        ",
"          O#b$c$d$h h h h h h h h h h h h h h e$f$g$h$          ",
"            i$j$k$l$>.h h h h h h h h h h <#m$n$o$p$            ",
"              q$r$s$t$R#Q#3 <#j j g x u$v$w$x$y$z$              ",
"                  A$B$C$D$E$F$G$H$I$J$K$L$M$N$                  ",
"                      O$P$Q$R$S$S$T$U$V$W$                      "};
