/* XPM */
static char * C:\Users\admin\Dropbox\ravecoin\pixmaps\bitcoin16_xpm[] = {
"16 16 183 2",
"  	c None",
". 	c #776D90",
"+ 	c #836B85",
"@ 	c #866880",
"# 	c #886B82",
"$ 	c #846F8B",
"% 	c #937C8D",
"& 	c #BC8F7E",
"* 	c #D2B2A3",
"= 	c #DECAC4",
"- 	c #E1D2CF",
"; 	c #DCCAC5",
"> 	c #CCAFA8",
", 	c #AD817E",
"' 	c #97717E",
") 	c #6A719C",
"! 	c #BF9989",
"~ 	c #E7C6AF",
"{ 	c #F8F1ED",
"] 	c #FEFDFD",
"^ 	c #FFFFFF",
"/ 	c #FFFFFE",
"( 	c #F8F4F3",
"_ 	c #F7F3F2",
": 	c #F5F0EF",
"< 	c #D3B9B3",
"[ 	c #A47576",
"} 	c #CAA791",
"| 	c #F9DFC7",
"1 	c #F4F2F0",
"2 	c #DFDFDF",
"3 	c #E5E5E5",
"4 	c #EBE2DE",
"5 	c #BA8A7A",
"6 	c #BC8D7D",
"7 	c #ECE2DF",
"8 	c #FCFAFA",
"9 	c #DECCC8",
"0 	c #A67672",
"a 	c #A69497",
"b 	c #FADCB9",
"c 	c #FFFDFB",
"d 	c #D8D8D8",
"e 	c #5B5B5C",
"f 	c #605E5E",
"g 	c #BBA699",
"h 	c #C2855C",
"i 	c #AE5E17",
"j 	c #A65417",
"k 	c #B47D6A",
"l 	c #EAE1DE",
"m 	c #FDFCFB",
"n 	c #D1B9B2",
"o 	c #DFB390",
"p 	c #FFF6ED",
"q 	c #D6D6D6",
"r 	c #676768",
"s 	c #C1AC9B",
"t 	c #DFA468",
"u 	c #D1893B",
"v 	c #C57E3E",
"w 	c #CAA08C",
"x 	c #C4B7B2",
"y 	c #A09E9E",
"z 	c #F6F6F6",
"A 	c #F5F1EF",
"B 	c #B28578",
"C 	c #8C7C97",
"D 	c #F2C6AA",
"E 	c #FFFDFC",
"F 	c #D3D3D3",
"G 	c #AEA193",
"H 	c #F7C486",
"I 	c #F3B361",
"J 	c #E7A658",
"K 	c #E8C4AA",
"L 	c #E1CEC4",
"M 	c #DAC1AC",
"N 	c #C4B6A8",
"O 	c #F2F2F1",
"P 	c #D3B5AB",
"Q 	c #9B7E8E",
"R 	c #F1D2C3",
"S 	c #E2E0DF",
"T 	c #F0CBA2",
"U 	c #FEC878",
"V 	c #FDC36F",
"W 	c #F9C079",
"X 	c #F6D2AF",
"Y 	c #F6DDC3",
"Z 	c #DCC8B3",
"` 	c #B4AEA9",
" .	c #F6F5F5",
"..	c #E7D3CB",
"+.	c #977A89",
"@.	c #EAD4CC",
"#.	c #EAE9E8",
"$.	c #DACDC2",
"%.	c #FACB9A",
"&.	c #FDCE90",
"*.	c #FDE1C2",
"=.	c #E8D3BD",
"-.	c #A29B95",
";.	c #6B6A6A",
">.	c #C8C7C8",
",.	c #FEFEFE",
"'.	c #F0E0D6",
").	c #897188",
"!.	c #DFCAC2",
"~.	c #D4D4D4",
"{.	c #CBAE9F",
"].	c #F3BA91",
"^.	c #F9DFCB",
"/.	c #DFD2C7",
"(.	c #737171",
"_.	c #5B5C5E",
":.	c #ACACAC",
"<.	c #FCFCFC",
"[.	c #F3DFD1",
"}.	c #7B6F8D",
"|.	c #C4ACA6",
"1.	c #FDFDFD",
"2.	c #E6E2E1",
"3.	c #D6AE9C",
"4.	c #E8D3C7",
"5.	c #E5DFDB",
"6.	c #EDEDED",
"7.	c #696969",
"8.	c #484849",
"9.	c #737374",
"0.	c #ECECEC",
"a.	c #FFFEFE",
"b.	c #F7D8BC",
"c.	c #9C7C7E",
"d.	c #F3F0EF",
"e.	c #E7DEDB",
"f.	c #E1D5D0",
"g.	c #A7A2A0",
"h.	c #C3C3C3",
"i.	c #B1B1B1",
"j.	c #3C3B3C",
"k.	c #444345",
"l.	c #B3B3B3",
"m.	c #FFFAF6",
"n.	c #FBCF9A",
"o.	c #856C7E",
"p.	c #C9B9B4",
"q.	c #FCFBFB",
"r.	c #EEEAE8",
"s.	c #C5C5C5",
"t.	c #777777",
"u.	c #CBCBCB",
"v.	c #E9E9E9",
"w.	c #6E6E6E",
"x.	c #5C5B5C",
"y.	c #787878",
"z.	c #EEEDEC",
"A.	c #FDE5CB",
"B.	c #937176",
"C.	c #DBD0CE",
"D.	c #FCFCFB",
"E.	c #FAFAFA",
"F.	c #F8F8F8",
"G.	c #FBFBFB",
"H.	c #F4F4F4",
"I.	c #F4F3F2",
"J.	c #F8E3D6",
"K.	c #F9C189",
"L.	c #987473",
"M.	c #D0C0BE",
"N.	c #F7F5F5",
"O.	c #FBF8F7",
"P.	c #EFD5C8",
"Q.	c #EEAC7E",
"R.	c #98706B",
"S.	c #AA8A85",
"T.	c #CDBDB9",
"U.	c #E2D9D7",
"V.	c #E8E1DF",
"W.	c #E4DBD8",
"X.	c #D7C4BE",
"Y.	c #CA9F8C",
"Z.	c #D0926E",
"            . + @ # $           ",
"        % & * = - ; > , '       ",
"    ) ! ~ { ] ^ / ( _ : < [     ",
"    } | 1 2 2 3 4 5 6 7 8 9 0   ",
"  a b c d e f g h i j k l m n   ",
"  o p ^ q r s t u v w x y z A B ",
"C D E ^ F G H I J K L M N O ] P ",
"Q R / ^ S T U V W X Y Z `  .^ ..",
"+.@.^ ^ #.$.%.&.*.=.-.;.>.,.^ '.",
").!./ ^ ~.{.].^./.(._.:.<.^ ^ [.",
"}.|.1.^ 2.3.4.5.6.7.8.9.0.^ a.b.",
"  c.d.^ e.f.g.h.1.i.j.k.l.1.m.n.",
"  o.p.q.r.s.t.u.,.v.w.x.y.z.A.  ",
"    B.C.D.E.F.G.^ ,.z H.I.J.K.  ",
"      L.M.N.,.^ ^ ^ a.O.P.Q.    ",
"        R.S.T.U.V.W.X.Y.Z.      "};
